<?xml version="1.0" encoding="UTF-8" ?>
<!DOCTYPE svg PUBLIC "-//W3C//DTD SVG 1.1//EN" "http://www.w3.org/Graphics/SVG/1.1/DTD/svg11.dtd">
<svg width="500pt" height="187pt" viewBox="0 0 500 187" version="1.1" xmlns="http://www.w3.org/2000/svg">
<g id="#ffffffff">
</g>
<g id="#ee7f01ff">
<path fill="#ee7f01" opacity="1.00" d=" M 74.45 6.71 C 96.28 3.57 119.62 7.45 138.11 19.86 C 151.93 28.88 161.80 43.01 167.52 58.32 C 175.49 79.91 175.52 104.24 168.11 125.99 C 163.31 140.80 154.35 154.43 141.77 163.75 C 113.20 185.11 71.48 186.56 41.30 167.69 C 25.19 157.51 13.45 141.03 8.14 122.81 C 2.14 102.44 2.81 80.28 9.17 60.09 C 18.46 31.81 44.76 9.96 74.45 6.71 M 82.51 48.68 C 72.13 50.92 63.61 59.21 60.15 69.13 C 54.28 85.91 54.41 105.06 61.89 121.33 C 67.47 133.39 81.79 140.83 94.85 137.79 C 105.81 135.55 114.42 126.48 117.88 116.09 C 122.90 100.58 122.81 83.34 116.99 68.06 C 112.15 54.47 96.74 45.31 82.51 48.68 Z" />
<path fill="#ee7f01" opacity="1.00" d=" M 241.92 8.20 C 253.76 5.35 266.06 5.49 278.13 6.29 C 294.07 7.55 310.56 12.27 322.34 23.60 C 334.22 34.26 338.34 50.54 340.79 65.71 C 324.00 65.80 307.22 65.82 290.44 65.78 C 288.81 59.83 284.86 54.51 279.36 51.61 C 269.06 45.90 255.36 46.80 246.03 54.04 C 240.46 58.28 237.84 65.08 235.52 71.44 C 229.97 88.53 231.26 107.81 239.17 123.96 C 246.76 138.75 268.21 143.09 281.47 133.49 C 286.99 129.14 288.63 121.95 290.62 115.58 C 307.56 115.68 324.50 115.46 341.44 115.54 C 341.72 133.19 334.02 150.93 320.46 162.32 C 306.02 174.72 286.79 180.47 267.97 180.67 C 252.23 180.79 236.03 178.41 222.06 170.82 C 204.11 161.06 190.25 143.96 184.71 124.27 C 178.43 102.45 178.39 78.55 186.27 57.13 C 190.63 45.31 197.43 34.20 206.99 25.88 C 216.89 17.17 229.09 11.15 241.92 8.20 Z" />
<path fill="#ee7f01" opacity="1.00" d=" M 375.66 16.72 C 392.37 7.36 412.17 3.93 431.11 6.34 C 444.62 8.20 458.21 12.55 469.02 21.12 C 482.18 31.91 489.33 49.00 489.43 65.87 C 473.11 65.79 456.79 65.79 440.47 65.79 C 439.93 59.09 439.35 50.99 433.23 46.85 C 426.29 43.20 417.81 42.14 410.29 44.54 C 406.99 45.87 403.33 47.65 401.83 51.08 C 400.48 54.39 402.53 57.86 404.96 60.05 C 409.20 64.26 415.31 65.31 420.76 67.18 C 440.55 73.08 462.18 75.37 479.39 87.73 C 489.50 94.66 495.42 106.56 496.56 118.59 C 498.21 135.04 491.84 152.37 479.03 163.03 C 465.70 174.36 448.02 178.75 430.95 180.19 C 410.68 182.24 389.55 177.95 372.38 166.77 C 365.63 162.30 359.30 156.89 354.97 149.97 C 348.49 139.76 345.76 127.63 345.00 115.68 C 362.45 115.47 379.90 115.54 397.36 115.53 C 398.18 123.56 398.08 133.51 405.40 138.70 C 412.96 142.79 422.05 143.96 430.46 142.24 C 434.86 140.98 439.94 139.62 442.35 135.32 C 445.28 130.92 445.27 123.70 440.19 120.88 C 421.01 110.61 398.65 109.07 379.05 99.87 C 373.14 97.13 367.51 93.68 362.72 89.26 C 354.76 81.06 351.33 69.25 351.93 57.99 C 352.72 41.58 361.31 25.17 375.66 16.72 Z" />
</g>
</svg>
