<?xml version="1.0" encoding="UTF-8" standalone="no"?>
<!-- Created with Inkscape (http://www.inkscape.org/) -->

<svg
   xmlns:dc="http://purl.org/dc/elements/1.1/"
   xmlns:cc="http://creativecommons.org/ns#"
   xmlns:rdf="http://www.w3.org/1999/02/22-rdf-syntax-ns#"
   xmlns:svg="http://www.w3.org/2000/svg"
   xmlns="http://www.w3.org/2000/svg"
   version="1.1"
   width="280.35864"
   height="270.71875"
   id="svg2">
  <defs
     id="defs4" />
  <metadata
     id="metadata7">
    <rdf:RDF>
      <cc:Work
         rdf:about="">
        <dc:format>image/svg+xml</dc:format>
        <dc:type
           rdf:resource="http://purl.org/dc/dcmitype/StillImage" />
        <dc:title></dc:title>
      </cc:Work>
    </rdf:RDF>
  </metadata>
  <g
     transform="translate(-279.01966,-381.65625)"
     id="layer1">
    <g
       transform="translate(-27.142857,42.857144)"
       id="layer1-0">
      <g
         transform="translate(8.571427,-22.857146)"
         id="layer1-1">
        <path
           d="m 418.81659,625.7812 c -18.42322,-9.28751 -32.14052,-17.69146 -44.9516,-27.53976 -15.88053,-12.20788 -32.68721,-30.98705 -46.26042,-51.68973 -17.58084,-26.81534 -25.99231,-52.6964 -28.71937,-88.36604 -0.82389,-10.77631 -0.92361,-42.43421 -0.14745,-46.80949 l 0.50471,-2.84512 12.48984,-2.68532 c 6.86941,-1.47693 12.87198,-2.83078 13.33904,-3.00857 0.46706,-0.17778 1.22296,-2.223 1.67977,-4.54491 0.45681,-2.32192 1.03895,-4.52922 1.29365,-4.90513 0.2547,-0.3759 5.6734,-1.92533 12.04157,-3.44319 l 11.57847,-2.75974 1.1001,-4.83674 c 0.60505,-2.6602 1.10009,-5.34268 1.10009,-5.96105 0,-0.61837 0.72321,-1.42982 1.60714,-1.80323 0.88393,-0.37341 18.06107,-3.29788 38.17144,-6.49881 l 36.5643,-5.81989 36.63358,6.20009 c 20.14847,3.41005 36.80169,6.36418 37.00715,6.56474 0.20545,0.20056 1.03244,2.9899 1.83774,6.19853 l 1.46418,5.83387 11.3734,2.52029 11.37338,2.52029 2.19437,5.66676 2.19435,5.66675 11.91283,2.53561 c 6.55205,1.39458 12.20957,2.85704 12.57226,3.24989 2.16143,2.34121 3.62111,32.49318 2.29951,47.5 -1.0973,12.45981 -2.67401,23.25186 -4.40037,30.119 -0.75717,3.01189 -1.3761,5.74403 -1.37539,6.07143 7e-4,0.32741 1.42449,1.49439 3.16396,2.59331 4.94055,3.12122 11.42955,10.5517 14.28868,16.3618 8.3369,16.94162 5.22366,35.85245 -8.10338,49.2225 -6.14135,6.16117 -12.7368,9.93512 -20.60532,11.79047 -6.7937,1.6019 -17.4833,1.00479 -23.8584,-1.33273 l -4.75605,-1.74387 -4.52967,5.33471 c -14.5985,17.19304 -39.22494,35.36007 -68.14952,50.27419 l -12.19129,6.28609 z m 17.30656,-5.17598 c 15.77586,-6.73991 33.05046,-18.11996 49.88472,-32.86273 8.91979,-7.8116 22.35029,-21.48709 22.01971,-22.42138 -0.34556,-0.97665 -10.7933,-12.8925 -11.26192,-12.84446 -0.22036,0.0226 -2.00779,2.1717 -3.97208,4.77579 -4.747,6.2932 -19.22173,20.79276 -26.78571,26.83165 -12.50017,9.9798 -23.51513,16.68881 -32.44315,19.7605 l -4.21663,1.45073 -11.70459,-6.07748 c -18.33599,-9.52078 -27.82826,-16.34364 -41.5359,-29.85522 -23.44997,-23.11458 -39.16271,-50.16349 -46.13926,-79.42704 -3.70126,-15.52517 -4.90209,-26.55662 -4.96929,-45.65066 l -0.0626,-17.79353 1.78571,-0.54961 c 0.98215,-0.30228 5.59163,-1.42764 10.2433,-2.50079 4.65168,-1.07315 8.88127,-2.37487 9.39911,-2.89271 0.51784,-0.51784 1.16495,-2.26396 1.43802,-3.88026 0.28207,-1.66956 -0.16131,-3.14254 1.34862,-3.99409 1.70341,-0.96068 5.68619,-1.2682 12.10369,-2.77312 6.8782,-1.61295 8.5704,-2.26307 9.04437,-3.47471 0.32068,-0.81978 1.27701,-3.30305 2.12519,-5.51838 l 1.54212,-4.02786 5.12781,-0.77101 c 2.82028,-0.42405 15.16087,-2.5773 25.57159,-4.16768 10.69242,-1.63341 15.28137,-2.63557 20.41118,-3.03543 1.85919,-0.14492 3.80976,-0.71581 5.49464,-0.70387 5.73411,0.0406 11.31579,1.99176 22.57895,3.77884 11.19643,1.77649 22.69485,3.63656 25.55205,4.13348 l 5.19491,0.9035 1.03325,3.47932 c 0.56829,1.91362 1.23218,4.53974 1.47533,5.83582 l 0.44208,2.3565 8.68691,1.59051 c 4.7778,0.87478 9.65423,2.041 10.52785,2.59161 0.96406,0.60759 1.76572,2.47973 2.42945,4.76289 l 1.09358,3.76179 6.60373,1.7135 c 3.63204,0.94242 9.07232,2.46727 12.0895,3.38855 l 5.48577,1.67506 0.49787,3.98473 c 0.27382,2.19161 0.31766,11.106 0.0974,19.80975 -0.38822,15.34227 -1.17474,21.4185 -4.42232,34.16449 -0.46243,1.81495 -0.33123,1.93134 2.61287,2.31765 1.70487,0.2237 5.66485,0.48879 8.79995,0.58908 l 5.70021,0.18235 1.93826,-9.64285 c 2.65627,-13.21495 3.39931,-19.71536 3.91911,-34.28571 0.51877,-14.54192 -0.1736,-27.45665 -1.54555,-28.82859 -0.51338,-0.51338 -6.90605,-2.48218 -14.20592,-4.37511 l -13.27251,-3.44168 -1.6169,-5.04851 -1.6169,-5.04851 -11.32247,-2.65366 c -6.22738,-1.45952 -11.43215,-2.76333 -11.56619,-2.89737 -0.13404,-0.13403 -1.02766,-2.95914 -1.98582,-6.27802 -0.95816,-3.31887 -2.18195,-6.27643 -2.71953,-6.57235 -0.53758,-0.29592 -14.89436,-2.7479 -31.90394,-5.44886 l -30.92654,-4.91082 -21.93061,3.41037 c -28.45059,4.42428 -43.64671,6.96576 -44.38756,7.42364 -0.32684,0.20199 -1.15701,2.54062 -1.84481,5.19694 -0.68781,2.65632 -1.06498,5.59408 -2.2692,6.47224 -0.75805,0.55279 -6.50413,1.86038 -12.5913,3.36124 l -11.06758,2.72882 -0.47207,3.27655 c -0.46658,3.23844 -0.1748,5.01067 -1.63697,6.03866 -1.60131,1.12582 -5.25591,1.40936 -13.09519,2.96745 -7.44561,1.47984 -13.74418,3.02508 -13.9968,3.43386 -1.17539,1.90182 -1.80413,25.5737 -1.00876,37.97943 1.57737,24.60261 5.51866,43.13107 13.2975,62.51306 8.6587,21.57423 20.74618,39.97582 38.04495,57.91838 16.27162,16.87718 33.02341,29.26997 57.36735,42.43975 5.66569,3.06507 11.26554,6.1586 12.44412,6.87451 1.17857,0.71591 2.35544,1.30706 2.61527,1.31368 0.25983,0.006 3.15269,-1.13306 6.42857,-2.53261 z m 11.22582,-32.7401 c 14.79947,-9.806 26.52494,-20.47226 39.3183,-35.76653 6.5076,-7.77975 6.55131,-7.85803 5.98376,-10.71429 -0.31446,-1.58251 -0.56962,-6.41301 -0.56704,-10.73444 0.007,-12.43802 3.74789,-21.64732 12.24251,-30.14194 l 3.33802,-3.33801 -2.0676,-3.94908 c -1.13719,-2.17199 -3.86373,-5.78467 -6.059,-8.02816 l -3.99138,-4.07909 6.10532,-4.51757 c 9.68098,-7.16335 14.76058,-12.28457 17.29894,-17.44072 4.56538,-9.27359 2.57118,-15.68569 -8.2145,-26.4127 -14.41623,-14.33782 -34.24911,-24.32116 -60.24283,-30.32463 -10.07785,-2.32756 -12.35692,-2.53962 -13.62846,-1.26809 -0.65819,0.6582 -0.85714,23.22334 -0.85714,97.21927 0,88.71788 0.0922,96.32675 1.16253,95.91603 0.63939,-0.24536 5.21975,-3.13438 10.17857,-6.42005 z M 424.5793,497.84374 c 0,-86.33889 -0.11318,-96.13357 -1.12245,-97.14284 -2.22332,-2.22332 -15.62354,-0.80235 -20.10883,2.13236 l -1.58843,1.0393 0.38396,59.10293 c 0.24395,37.55321 0.13591,58.71229 -0.29634,58.03152 -1.01299,-1.59543 -6.6908,-19.69263 -7.50671,-27.96918 -1.36916,-13.88866 -3.66735,-24.4147 -4.38102,-56.07142 -0.38527,-17.08929 0.13303,-27.59257 -0.0829,-28.27916 -0.65355,-2.0784 -3.57442,-2.26373 -8.36272,-0.53064 -6.64589,2.40542 -11.07247,4.8109 -11.98263,6.51155 -1.26578,2.36514 -0.47222,48.56204 1.11081,64.66506 l 1.27493,12.96907 -2.17347,3.76461 -2.17349,3.76461 -2.87225,-8.98438 c -5.59445,-17.49939 -7.28879,-28.25352 -8.59177,-54.53289 -0.31302,-6.31317 -0.80356,-11.85781 -1.09009,-12.32143 -0.28653,-0.46361 -1.02868,-0.84294 -1.64923,-0.84294 -1.28329,0 -11.31278,6.59796 -15.50094,10.19738 l -2.78494,2.39345 0.81213,11.38316 c 2.11453,29.63799 7.28462,51.13753 16.51506,68.6769 3.33663,6.34017 10.96876,17.60477 13.15985,19.4232 0.89698,0.74443 1.95284,-0.45103 6.83594,-7.7397 3.17631,-4.74106 5.90365,-8.62011 6.06075,-8.62011 0.1571,0 0.83716,1.6875 1.51123,3.75 1.68137,5.1446 7.50518,19.68014 10.66041,26.60714 6.21905,13.65329 10.09902,20.12278 17.62855,29.39404 4.11668,5.06895 14.62055,15.24882 15.73415,15.24882 0.31922,0 0.58041,-43.20919 0.58041,-96.02041 z m 99.28571,39.19556 0,-13.25342 3.34019,0.21771 3.34019,0.2177 5.32648,13.03572 5.32648,13.03571 4.75317,0 4.75318,0 1.85187,-5.53571 c 1.01853,-3.04465 3.79411,-11.08036 6.16796,-17.85715 l 4.31609,-12.32142 -6.2509,0 -6.2509,0 -2.43297,8.52113 c -1.3785,4.82797 -2.66504,8.15596 -2.9684,7.67857 -0.29449,-0.46341 -1.69212,-4.29792 -3.10585,-8.52113 l -2.57042,-7.67857 -17.0838,0 -17.0838,0 0,5 0,5 3.57143,0 3.57143,0 0,12.85714 0,12.85714 5.71428,0 5.71429,0 z"
           id="path3042-4"
           style="fill:#000000;fill-opacity:1;stroke:#000000;stroke-width:1.21428573;stroke-linecap:butt;stroke-miterlimit:4;stroke-opacity:1;stroke-dasharray:none" />
        <path
           d="m 458.15072,451.81199 0,-27.14844 4.82143,1.64915 c 16.5999,5.67794 30.24621,14.47776 32.3536,20.86321 2.15438,6.52783 -4.66322,14.97519 -18.70432,23.17564 -4.97332,2.90457 -13.73296,7.11275 -16.86356,8.10136 l -1.60715,0.50751 0,-27.14843 z"
           id="path3044-8"
           style="fill:#000000;fill-opacity:1;stroke:#000000;stroke-width:1.21428573;stroke-linecap:butt;stroke-miterlimit:4;stroke-opacity:1;stroke-dasharray:none" />
        <path
           d="m 458.89431,526.25223 -0.0293,-25.8262 5.53571,-2.34963 c 9.58015,-4.0663 16.49146,-3.12971 19.46429,2.6377 1.85403,3.59689 1.2876,10.53691 -1.37866,16.89166 -3.65396,8.70883 -12.97453,22.76706 -20.91347,31.54382 l -2.64928,2.92886 -0.0293,-25.82621 z"
           id="path3046-8"
           style="fill:#000000;fill-opacity:1;stroke:#000000;stroke-width:1.21428573;stroke-linecap:butt;stroke-miterlimit:4;stroke-opacity:1;stroke-dasharray:none" />
      </g>
    </g>
  </g>
</svg>
